<mxfile host="app.diagrams.net" agent="Mozilla/5.0 (Windows NT 10.0; Win64; x64) AppleWebKit/537.36 (KHTML, like Gecko) Chrome/141.0.0.0 Safari/537.36" version="28.2.5">
  <diagram id="C5RBs43oDa-KdzZeNtuy" name="Page-1">
    <mxGraphModel grid="1" page="1" gridSize="10" guides="1" tooltips="1" connect="1" arrows="1" fold="1" pageScale="1" pageWidth="827" pageHeight="1169" math="0" shadow="0">
      <root>
        <mxCell id="WIyWlLk6GJQsqaUBKTNV-0" />
        <mxCell id="WIyWlLk6GJQsqaUBKTNV-1" parent="WIyWlLk6GJQsqaUBKTNV-0" />
        <mxCell id="OYwcLzdA0f2TL-MNALGe-0" value="เริ่ม (Start)" style="ellipse;whiteSpace=wrap;html=1;" vertex="1" parent="WIyWlLk6GJQsqaUBKTNV-1">
          <mxGeometry x="300" y="90" width="100" height="40" as="geometry" />
        </mxCell>
        <mxCell id="OYwcLzdA0f2TL-MNALGe-1" value="กำหนดตัวแปร: arr[100], count=0, input" style="rounded=0;whiteSpace=wrap;html=1;" vertex="1" parent="WIyWlLk6GJQsqaUBKTNV-1">
          <mxGeometry x="270" y="150" width="160" height="50" as="geometry" />
        </mxCell>
        <mxCell id="OYwcLzdA0f2TL-MNALGe-2" value="แสดงผล: &quot;Enter value:&quot;" style="shape=parallelogram;perimeter=parallelogramPerimeter;whiteSpace=wrap;html=1;" vertex="1" parent="WIyWlLk6GJQsqaUBKTNV-1">
          <mxGeometry x="270" y="220" width="160" height="40" as="geometry" />
        </mxCell>
        <mxCell id="OYwcLzdA0f2TL-MNALGe-67" style="edgeStyle=orthogonalEdgeStyle;rounded=0;orthogonalLoop=1;jettySize=auto;html=1;entryX=0;entryY=0.5;entryDx=0;entryDy=0;" edge="1" parent="WIyWlLk6GJQsqaUBKTNV-1" source="OYwcLzdA0f2TL-MNALGe-3" target="OYwcLzdA0f2TL-MNALGe-22">
          <mxGeometry relative="1" as="geometry">
            <Array as="points">
              <mxPoint x="190" y="310" />
              <mxPoint x="190" y="540" />
            </Array>
          </mxGeometry>
        </mxCell>
        <mxCell id="OYwcLzdA0f2TL-MNALGe-3" value="อ่านค่า input สำเร็จ และ count &lt; 100?" style="rhombus;whiteSpace=wrap;html=1;" vertex="1" parent="WIyWlLk6GJQsqaUBKTNV-1">
          <mxGeometry x="250" y="280" width="200" height="60" as="geometry" />
        </mxCell>
        <mxCell id="OYwcLzdA0f2TL-MNALGe-4" value="เก็บ input ลง arr[count] และเพิ่ม count" style="rounded=0;whiteSpace=wrap;html=1;" vertex="1" parent="WIyWlLk6GJQsqaUBKTNV-1">
          <mxGeometry x="250" y="360" width="200" height="40" as="geometry" />
        </mxCell>
        <mxCell id="OYwcLzdA0f2TL-MNALGe-5" value="อ่านอักขระถัดไปเป็น &#39;\n&#39; (Enter)?" style="rhombus;whiteSpace=wrap;html=1;" vertex="1" parent="WIyWlLk6GJQsqaUBKTNV-1">
          <mxGeometry x="250" y="420" width="200" height="60" as="geometry" />
        </mxCell>
        <mxCell id="OYwcLzdA0f2TL-MNALGe-6" value="กำหนด min_val = INT_MAX และ max_val = INT_MIN" style="rounded=0;whiteSpace=wrap;html=1;" vertex="1" parent="WIyWlLk6GJQsqaUBKTNV-1">
          <mxGeometry x="230" y="590" width="240" height="50" as="geometry" />
        </mxCell>
        <mxCell id="OYwcLzdA0f2TL-MNALGe-7" value="กำหนด i = 0" style="rounded=0;whiteSpace=wrap;html=1;" vertex="1" parent="WIyWlLk6GJQsqaUBKTNV-1">
          <mxGeometry x="270" y="660" width="160" height="40" as="geometry" />
        </mxCell>
        <mxCell id="OYwcLzdA0f2TL-MNALGe-8" value="i &lt; count?" style="rhombus;whiteSpace=wrap;html=1;" vertex="1" parent="WIyWlLk6GJQsqaUBKTNV-1">
          <mxGeometry x="300" y="720" width="100" height="50" as="geometry" />
        </mxCell>
        <mxCell id="OYwcLzdA0f2TL-MNALGe-9" value="arr[i] &lt; min_val?" style="rhombus;whiteSpace=wrap;html=1;" vertex="1" parent="WIyWlLk6GJQsqaUBKTNV-1">
          <mxGeometry x="260" y="790" width="180" height="50" as="geometry" />
        </mxCell>
        <mxCell id="OYwcLzdA0f2TL-MNALGe-10" value="min_val = arr[i]" style="rounded=0;whiteSpace=wrap;html=1;" vertex="1" parent="WIyWlLk6GJQsqaUBKTNV-1">
          <mxGeometry x="480" y="790" width="100" height="50" as="geometry" />
        </mxCell>
        <mxCell id="OYwcLzdA0f2TL-MNALGe-11" value="arr[i] &gt; max_val?" style="rhombus;whiteSpace=wrap;html=1;" vertex="1" parent="WIyWlLk6GJQsqaUBKTNV-1">
          <mxGeometry x="260" y="860" width="180" height="50" as="geometry" />
        </mxCell>
        <mxCell id="OYwcLzdA0f2TL-MNALGe-12" value="max_val = arr[i]" style="rounded=0;whiteSpace=wrap;html=1;" vertex="1" parent="WIyWlLk6GJQsqaUBKTNV-1">
          <mxGeometry x="130" y="860" width="100" height="50" as="geometry" />
        </mxCell>
        <mxCell id="OYwcLzdA0f2TL-MNALGe-13" value="i = i + 1" style="rounded=0;whiteSpace=wrap;html=1;" vertex="1" parent="WIyWlLk6GJQsqaUBKTNV-1">
          <mxGeometry x="300" y="930" width="100" height="40" as="geometry" />
        </mxCell>
        <mxCell id="OYwcLzdA0f2TL-MNALGe-14" value="แสดงผล: &quot;Output:&quot;" style="shape=parallelogram;perimeter=parallelogramPerimeter;whiteSpace=wrap;html=1;" vertex="1" parent="WIyWlLk6GJQsqaUBKTNV-1">
          <mxGeometry x="270" y="1000" width="160" height="40" as="geometry" />
        </mxCell>
        <mxCell id="OYwcLzdA0f2TL-MNALGe-15" value="แสดงผล: &quot;Index: &quot;" style="shape=parallelogram;perimeter=parallelogramPerimeter;whiteSpace=wrap;html=1;" vertex="1" parent="WIyWlLk6GJQsqaUBKTNV-1">
          <mxGeometry x="270" y="1060" width="160" height="40" as="geometry" />
        </mxCell>
        <mxCell id="OYwcLzdA0f2TL-MNALGe-16" value="วนลูป i=0 ถึง count-1: แสดงผล Index i" style="rounded=0;whiteSpace=wrap;html=1;" vertex="1" parent="WIyWlLk6GJQsqaUBKTNV-1">
          <mxGeometry x="250" y="1120" width="200" height="40" as="geometry" />
        </mxCell>
        <mxCell id="OYwcLzdA0f2TL-MNALGe-17" value="แสดงผล: ขึ้นบรรทัดใหม่" style="shape=parallelogram;perimeter=parallelogramPerimeter;whiteSpace=wrap;html=1;" vertex="1" parent="WIyWlLk6GJQsqaUBKTNV-1">
          <mxGeometry x="270" y="1180" width="160" height="40" as="geometry" />
        </mxCell>
        <mxCell id="OYwcLzdA0f2TL-MNALGe-18" value="แสดงผล: &quot;Array: &quot;" style="shape=parallelogram;perimeter=parallelogramPerimeter;whiteSpace=wrap;html=1;" vertex="1" parent="WIyWlLk6GJQsqaUBKTNV-1">
          <mxGeometry x="270" y="1240" width="160" height="40" as="geometry" />
        </mxCell>
        <mxCell id="OYwcLzdA0f2TL-MNALGe-19" value="วนลูป i=0 ถึง count-1: แสดงผล arr[i]" style="rounded=0;whiteSpace=wrap;html=1;" vertex="1" parent="WIyWlLk6GJQsqaUBKTNV-1">
          <mxGeometry x="250" y="1300" width="200" height="40" as="geometry" />
        </mxCell>
        <mxCell id="OYwcLzdA0f2TL-MNALGe-20" value="แสดงผล: ขึ้นบรรทัดใหม่, Min : min_val, Max : max_val" style="shape=parallelogram;perimeter=parallelogramPerimeter;whiteSpace=wrap;html=1;" vertex="1" parent="WIyWlLk6GJQsqaUBKTNV-1">
          <mxGeometry x="220" y="1360" width="260" height="50" as="geometry" />
        </mxCell>
        <mxCell id="OYwcLzdA0f2TL-MNALGe-21" value="จบ (Stop)" style="ellipse;whiteSpace=wrap;html=1;" vertex="1" parent="WIyWlLk6GJQsqaUBKTNV-1">
          <mxGeometry x="300" y="1440" width="100" height="40" as="geometry" />
        </mxCell>
        <mxCell id="OYwcLzdA0f2TL-MNALGe-22" value="count == 0?" style="rhombus;whiteSpace=wrap;html=1;" vertex="1" parent="WIyWlLk6GJQsqaUBKTNV-1">
          <mxGeometry x="300" y="520" width="100" height="40" as="geometry" />
        </mxCell>
        <mxCell id="OYwcLzdA0f2TL-MNALGe-23" value="แสดงผล: &quot;No data entered.&quot;" style="shape=parallelogram;perimeter=parallelogramPerimeter;whiteSpace=wrap;html=1;" vertex="1" parent="WIyWlLk6GJQsqaUBKTNV-1">
          <mxGeometry x="540" y="520" width="230" height="40" as="geometry" />
        </mxCell>
        <mxCell id="OYwcLzdA0f2TL-MNALGe-24" value="" style="endArrow=classic;html=1;entryDx=0;entryDy=0;entryPerimeter=0;" edge="1" parent="WIyWlLk6GJQsqaUBKTNV-1" source="OYwcLzdA0f2TL-MNALGe-0" target="OYwcLzdA0f2TL-MNALGe-1">
          <mxGeometry width="50" height="50" relative="1" as="geometry">
            <mxPoint x="350" y="140" as="sourcePoint" />
            <mxPoint x="350" y="170" as="targetPoint" />
          </mxGeometry>
        </mxCell>
        <mxCell id="OYwcLzdA0f2TL-MNALGe-25" value="" style="endArrow=classic;html=1;entryDx=0;entryDy=0;entryPerimeter=0;" edge="1" parent="WIyWlLk6GJQsqaUBKTNV-1" source="OYwcLzdA0f2TL-MNALGe-1" target="OYwcLzdA0f2TL-MNALGe-2">
          <mxGeometry width="50" height="50" relative="1" as="geometry">
            <mxPoint x="350" y="220" as="sourcePoint" />
            <mxPoint x="350" y="250" as="targetPoint" />
          </mxGeometry>
        </mxCell>
        <mxCell id="OYwcLzdA0f2TL-MNALGe-26" value="" style="endArrow=classic;html=1;entryDx=0;entryDy=0;entryPerimeter=0;" edge="1" parent="WIyWlLk6GJQsqaUBKTNV-1" source="OYwcLzdA0f2TL-MNALGe-2" target="OYwcLzdA0f2TL-MNALGe-3">
          <mxGeometry width="50" height="50" relative="1" as="geometry">
            <mxPoint x="350" y="290" as="sourcePoint" />
            <mxPoint x="350" y="320" as="targetPoint" />
          </mxGeometry>
        </mxCell>
        <mxCell id="OYwcLzdA0f2TL-MNALGe-28" value="" style="endArrow=classic;html=1;entryDx=0;entryDy=0;entryPerimeter=0;" edge="1" parent="WIyWlLk6GJQsqaUBKTNV-1" source="OYwcLzdA0f2TL-MNALGe-3" target="OYwcLzdA0f2TL-MNALGe-4">
          <mxGeometry width="50" height="50" relative="1" as="geometry">
            <mxPoint x="350" y="340" as="sourcePoint" />
            <mxPoint x="350" y="370" as="targetPoint" />
          </mxGeometry>
        </mxCell>
        <mxCell id="OYwcLzdA0f2TL-MNALGe-30" value="" style="endArrow=classic;html=1;entryDx=0;entryDy=0;entryPerimeter=0;" edge="1" parent="WIyWlLk6GJQsqaUBKTNV-1" source="OYwcLzdA0f2TL-MNALGe-4" target="OYwcLzdA0f2TL-MNALGe-5">
          <mxGeometry width="50" height="50" relative="1" as="geometry">
            <mxPoint x="350" y="410" as="sourcePoint" />
            <mxPoint x="350" y="440" as="targetPoint" />
          </mxGeometry>
        </mxCell>
        <mxCell id="OYwcLzdA0f2TL-MNALGe-31" value="" style="endArrow=classic;html=1;exitDx=0;exitDy=0;exitPerimeter=0;" edge="1" parent="WIyWlLk6GJQsqaUBKTNV-1" source="OYwcLzdA0f2TL-MNALGe-5" target="OYwcLzdA0f2TL-MNALGe-3">
          <mxGeometry width="50" height="50" relative="1" as="geometry">
            <mxPoint x="450" y="450" as="sourcePoint" />
            <mxPoint x="520" y="310" as="targetPoint" />
            <Array as="points">
              <mxPoint x="500" y="450" />
              <mxPoint x="500" y="310" />
            </Array>
          </mxGeometry>
        </mxCell>
        <mxCell id="OYwcLzdA0f2TL-MNALGe-33" value="" style="endArrow=classic;html=1;entryDx=0;entryDy=0;entryPerimeter=0;" edge="1" parent="WIyWlLk6GJQsqaUBKTNV-1" source="OYwcLzdA0f2TL-MNALGe-5" target="OYwcLzdA0f2TL-MNALGe-22">
          <mxGeometry width="50" height="50" relative="1" as="geometry">
            <mxPoint x="350" y="480" as="sourcePoint" />
            <mxPoint x="350" y="510" as="targetPoint" />
            <Array as="points">
              <mxPoint x="350" y="510" />
            </Array>
          </mxGeometry>
        </mxCell>
        <mxCell id="OYwcLzdA0f2TL-MNALGe-37" value="" style="endArrow=classic;html=1;entryDx=0;entryDy=0;entryPerimeter=0;" edge="1" parent="WIyWlLk6GJQsqaUBKTNV-1" source="OYwcLzdA0f2TL-MNALGe-22" target="OYwcLzdA0f2TL-MNALGe-6">
          <mxGeometry width="50" height="50" relative="1" as="geometry">
            <mxPoint x="350" y="560" as="sourcePoint" />
            <mxPoint x="350" y="590" as="targetPoint" />
          </mxGeometry>
        </mxCell>
        <mxCell id="OYwcLzdA0f2TL-MNALGe-39" value="" style="endArrow=classic;html=1;entryDx=0;entryDy=0;entryPerimeter=0;" edge="1" parent="WIyWlLk6GJQsqaUBKTNV-1" source="OYwcLzdA0f2TL-MNALGe-22" target="OYwcLzdA0f2TL-MNALGe-23">
          <mxGeometry width="50" height="50" relative="1" as="geometry">
            <mxPoint x="400" y="540" as="sourcePoint" />
            <mxPoint x="500" y="540" as="targetPoint" />
          </mxGeometry>
        </mxCell>
        <mxCell id="OYwcLzdA0f2TL-MNALGe-41" value="" style="endArrow=classic;html=1;entryDx=0;entryDy=0;entryPerimeter=0;" edge="1" parent="WIyWlLk6GJQsqaUBKTNV-1" source="OYwcLzdA0f2TL-MNALGe-23" target="OYwcLzdA0f2TL-MNALGe-21">
          <mxGeometry width="50" height="50" relative="1" as="geometry">
            <mxPoint x="575" y="560" as="sourcePoint" />
            <mxPoint x="350" y="1440" as="targetPoint" />
            <Array as="points">
              <mxPoint x="650" y="1460" />
            </Array>
          </mxGeometry>
        </mxCell>
        <mxCell id="OYwcLzdA0f2TL-MNALGe-42" value="" style="endArrow=classic;html=1;entryDx=0;entryDy=0;entryPerimeter=0;" edge="1" parent="WIyWlLk6GJQsqaUBKTNV-1" source="OYwcLzdA0f2TL-MNALGe-6" target="OYwcLzdA0f2TL-MNALGe-7">
          <mxGeometry width="50" height="50" relative="1" as="geometry">
            <mxPoint x="350" y="650" as="sourcePoint" />
            <mxPoint x="350" y="680" as="targetPoint" />
          </mxGeometry>
        </mxCell>
        <mxCell id="OYwcLzdA0f2TL-MNALGe-43" value="" style="endArrow=classic;html=1;entryDx=0;entryDy=0;entryPerimeter=0;" edge="1" parent="WIyWlLk6GJQsqaUBKTNV-1" source="OYwcLzdA0f2TL-MNALGe-7" target="OYwcLzdA0f2TL-MNALGe-8">
          <mxGeometry width="50" height="50" relative="1" as="geometry">
            <mxPoint x="350" y="710" as="sourcePoint" />
            <mxPoint x="350" y="740" as="targetPoint" />
          </mxGeometry>
        </mxCell>
        <mxCell id="OYwcLzdA0f2TL-MNALGe-44" value="" style="endArrow=classic;html=1;entryDx=0;entryDy=0;entryPerimeter=0;" edge="1" parent="WIyWlLk6GJQsqaUBKTNV-1" source="OYwcLzdA0f2TL-MNALGe-8" target="OYwcLzdA0f2TL-MNALGe-9">
          <mxGeometry width="50" height="50" relative="1" as="geometry">
            <mxPoint x="350" y="770" as="sourcePoint" />
            <mxPoint x="350" y="800" as="targetPoint" />
          </mxGeometry>
        </mxCell>
        <mxCell id="OYwcLzdA0f2TL-MNALGe-46" value="" style="endArrow=classic;html=1;entryDx=0;entryDy=0;entryPerimeter=0;" edge="1" parent="WIyWlLk6GJQsqaUBKTNV-1" source="OYwcLzdA0f2TL-MNALGe-9" target="OYwcLzdA0f2TL-MNALGe-10">
          <mxGeometry width="50" height="50" relative="1" as="geometry">
            <mxPoint x="260" y="815" as="sourcePoint" />
            <mxPoint x="230" y="815" as="targetPoint" />
            <Array as="points" />
          </mxGeometry>
        </mxCell>
        <mxCell id="OYwcLzdA0f2TL-MNALGe-48" value="" style="endArrow=classic;html=1;entryDx=0;entryDy=0;entryPerimeter=0;" edge="1" parent="WIyWlLk6GJQsqaUBKTNV-1" source="OYwcLzdA0f2TL-MNALGe-9" target="OYwcLzdA0f2TL-MNALGe-11">
          <mxGeometry width="50" height="50" relative="1" as="geometry">
            <mxPoint x="350" y="840" as="sourcePoint" />
            <mxPoint x="350" y="860" as="targetPoint" />
          </mxGeometry>
        </mxCell>
        <mxCell id="OYwcLzdA0f2TL-MNALGe-50" value="" style="endArrow=classic;html=1;entryDx=0;entryDy=0;entryPerimeter=0;" edge="1" parent="WIyWlLk6GJQsqaUBKTNV-1" source="OYwcLzdA0f2TL-MNALGe-10" target="OYwcLzdA0f2TL-MNALGe-11">
          <mxGeometry width="50" height="50" relative="1" as="geometry">
            <mxPoint x="180" y="840" as="sourcePoint" />
            <mxPoint x="260" y="885" as="targetPoint" />
            <Array as="points">
              <mxPoint x="530" y="880" />
            </Array>
          </mxGeometry>
        </mxCell>
        <mxCell id="OYwcLzdA0f2TL-MNALGe-51" value="" style="endArrow=classic;html=1;entryDx=0;entryDy=0;entryPerimeter=0;" edge="1" parent="WIyWlLk6GJQsqaUBKTNV-1" source="OYwcLzdA0f2TL-MNALGe-11" target="OYwcLzdA0f2TL-MNALGe-12">
          <mxGeometry width="50" height="50" relative="1" as="geometry">
            <mxPoint x="260" y="885" as="sourcePoint" />
            <mxPoint x="180" y="885" as="targetPoint" />
            <Array as="points">
              <mxPoint x="230" y="885" />
            </Array>
          </mxGeometry>
        </mxCell>
        <mxCell id="OYwcLzdA0f2TL-MNALGe-53" value="" style="endArrow=classic;html=1;entryDx=0;entryDy=0;entryPerimeter=0;" edge="1" parent="WIyWlLk6GJQsqaUBKTNV-1" source="OYwcLzdA0f2TL-MNALGe-11" target="OYwcLzdA0f2TL-MNALGe-13">
          <mxGeometry width="50" height="50" relative="1" as="geometry">
            <mxPoint x="350" y="910" as="sourcePoint" />
            <mxPoint x="350" y="930" as="targetPoint" />
          </mxGeometry>
        </mxCell>
        <mxCell id="OYwcLzdA0f2TL-MNALGe-55" value="" style="endArrow=classic;html=1;entryDx=0;entryDy=0;entryPerimeter=0;" edge="1" parent="WIyWlLk6GJQsqaUBKTNV-1" source="OYwcLzdA0f2TL-MNALGe-12" target="OYwcLzdA0f2TL-MNALGe-13">
          <mxGeometry width="50" height="50" relative="1" as="geometry">
            <mxPoint x="180" y="910" as="sourcePoint" />
            <mxPoint x="350" y="930" as="targetPoint" />
            <Array as="points">
              <mxPoint x="180" y="950" />
            </Array>
          </mxGeometry>
        </mxCell>
        <mxCell id="OYwcLzdA0f2TL-MNALGe-56" value="" style="endArrow=classic;html=1;entryDx=0;entryDy=0;entryPerimeter=0;" edge="1" parent="WIyWlLk6GJQsqaUBKTNV-1" source="OYwcLzdA0f2TL-MNALGe-13" target="OYwcLzdA0f2TL-MNALGe-8">
          <mxGeometry width="50" height="50" relative="1" as="geometry">
            <mxPoint x="350" y="970" as="sourcePoint" />
            <mxPoint x="350" y="720" as="targetPoint" />
            <Array as="points">
              <mxPoint x="350" y="980" />
              <mxPoint x="600" y="980" />
              <mxPoint x="600" y="740" />
            </Array>
          </mxGeometry>
        </mxCell>
        <mxCell id="OYwcLzdA0f2TL-MNALGe-57" value="" style="endArrow=classic;html=1;entryDx=0;entryDy=0;entryPerimeter=0;" edge="1" parent="WIyWlLk6GJQsqaUBKTNV-1" source="OYwcLzdA0f2TL-MNALGe-8" target="OYwcLzdA0f2TL-MNALGe-14">
          <mxGeometry width="50" height="50" relative="1" as="geometry">
            <mxPoint x="350" y="770" as="sourcePoint" />
            <mxPoint x="350" y="1000" as="targetPoint" />
            <Array as="points">
              <mxPoint x="100" y="745" />
              <mxPoint x="100" y="860" />
              <mxPoint x="100" y="980" />
              <mxPoint x="350" y="980" />
            </Array>
          </mxGeometry>
        </mxCell>
        <mxCell id="OYwcLzdA0f2TL-MNALGe-59" value="" style="endArrow=classic;html=1;entryDx=0;entryDy=0;entryPerimeter=0;" edge="1" parent="WIyWlLk6GJQsqaUBKTNV-1" source="OYwcLzdA0f2TL-MNALGe-14" target="OYwcLzdA0f2TL-MNALGe-15">
          <mxGeometry width="50" height="50" relative="1" as="geometry">
            <mxPoint x="350" y="1040" as="sourcePoint" />
            <mxPoint x="350" y="1070" as="targetPoint" />
          </mxGeometry>
        </mxCell>
        <mxCell id="OYwcLzdA0f2TL-MNALGe-60" value="" style="endArrow=classic;html=1;entryDx=0;entryDy=0;entryPerimeter=0;" edge="1" parent="WIyWlLk6GJQsqaUBKTNV-1" source="OYwcLzdA0f2TL-MNALGe-15" target="OYwcLzdA0f2TL-MNALGe-16">
          <mxGeometry width="50" height="50" relative="1" as="geometry">
            <mxPoint x="350" y="1100" as="sourcePoint" />
            <mxPoint x="350" y="1130" as="targetPoint" />
          </mxGeometry>
        </mxCell>
        <mxCell id="OYwcLzdA0f2TL-MNALGe-61" value="" style="endArrow=classic;html=1;entryDx=0;entryDy=0;entryPerimeter=0;" edge="1" parent="WIyWlLk6GJQsqaUBKTNV-1" source="OYwcLzdA0f2TL-MNALGe-16" target="OYwcLzdA0f2TL-MNALGe-17">
          <mxGeometry width="50" height="50" relative="1" as="geometry">
            <mxPoint x="350" y="1160" as="sourcePoint" />
            <mxPoint x="350" y="1190" as="targetPoint" />
          </mxGeometry>
        </mxCell>
        <mxCell id="OYwcLzdA0f2TL-MNALGe-62" value="" style="endArrow=classic;html=1;entryDx=0;entryDy=0;entryPerimeter=0;" edge="1" parent="WIyWlLk6GJQsqaUBKTNV-1" source="OYwcLzdA0f2TL-MNALGe-17" target="OYwcLzdA0f2TL-MNALGe-18">
          <mxGeometry width="50" height="50" relative="1" as="geometry">
            <mxPoint x="350" y="1220" as="sourcePoint" />
            <mxPoint x="350" y="1250" as="targetPoint" />
          </mxGeometry>
        </mxCell>
        <mxCell id="OYwcLzdA0f2TL-MNALGe-63" value="" style="endArrow=classic;html=1;entryDx=0;entryDy=0;entryPerimeter=0;" edge="1" parent="WIyWlLk6GJQsqaUBKTNV-1" source="OYwcLzdA0f2TL-MNALGe-18" target="OYwcLzdA0f2TL-MNALGe-19">
          <mxGeometry width="50" height="50" relative="1" as="geometry">
            <mxPoint x="350" y="1280" as="sourcePoint" />
            <mxPoint x="350" y="1310" as="targetPoint" />
          </mxGeometry>
        </mxCell>
        <mxCell id="OYwcLzdA0f2TL-MNALGe-64" value="" style="endArrow=classic;html=1;entryDx=0;entryDy=0;entryPerimeter=0;" edge="1" parent="WIyWlLk6GJQsqaUBKTNV-1" source="OYwcLzdA0f2TL-MNALGe-19" target="OYwcLzdA0f2TL-MNALGe-20">
          <mxGeometry width="50" height="50" relative="1" as="geometry">
            <mxPoint x="350" y="1340" as="sourcePoint" />
            <mxPoint x="350" y="1370" as="targetPoint" />
          </mxGeometry>
        </mxCell>
        <mxCell id="OYwcLzdA0f2TL-MNALGe-65" value="" style="endArrow=classic;html=1;entryDx=0;entryDy=0;entryPerimeter=0;" edge="1" parent="WIyWlLk6GJQsqaUBKTNV-1" source="OYwcLzdA0f2TL-MNALGe-20" target="OYwcLzdA0f2TL-MNALGe-21">
          <mxGeometry width="50" height="50" relative="1" as="geometry">
            <mxPoint x="350" y="1420" as="sourcePoint" />
            <mxPoint x="350" y="1440" as="targetPoint" />
          </mxGeometry>
        </mxCell>
      </root>
    </mxGraphModel>
  </diagram>
</mxfile>
